<svg width="25" height="24" viewBox="0 0 25 24" fill="none" xmlns="http://www.w3.org/2000/svg">
<g filter="url(#filter0_b_4_253)">
<rect x="0.5" width="24" height="24" rx="4" fill="#777574"/>
<path fill-rule="evenodd" clip-rule="evenodd" d="M12.5 6C12.6989 6 12.8896 6.07902 13.0303 6.21967C13.171 6.36032 13.25 6.55109 13.25 6.75V15.4395L16.469 12.219C16.5387 12.1493 16.6215 12.094 16.7126 12.0562C16.8037 12.0185 16.9014 11.9991 17 11.9991C17.0986 11.9991 17.1962 12.0185 17.2873 12.0562C17.3785 12.094 17.4612 12.1493 17.531 12.219C17.6007 12.2887 17.656 12.3715 17.6938 12.4626C17.7315 12.5537 17.7509 12.6514 17.7509 12.75C17.7509 12.8486 17.7315 12.9463 17.6938 13.0374C17.656 13.1285 17.6007 13.2113 17.531 13.281L13.031 17.781C12.9613 17.8508 12.8785 17.9063 12.7874 17.9441C12.6963 17.9819 12.5986 18.0013 12.5 18.0013C12.4013 18.0013 12.3036 17.9819 12.2125 17.9441C12.1214 17.9063 12.0386 17.8508 11.969 17.781L7.46897 13.281C7.39924 13.2113 7.34392 13.1285 7.30619 13.0374C7.26845 12.9463 7.24902 12.8486 7.24902 12.75C7.24902 12.6514 7.26845 12.5537 7.30619 12.4626C7.34392 12.3715 7.39924 12.2887 7.46897 12.219C7.6098 12.0782 7.80081 11.9991 7.99997 11.9991C8.09859 11.9991 8.19624 12.0185 8.28735 12.0562C8.37846 12.094 8.46124 12.1493 8.53097 12.219L11.75 15.4395V6.75C11.75 6.55109 11.829 6.36032 11.9696 6.21967C12.1103 6.07902 12.3011 6 12.5 6V6Z" fill="white"/>
</g>
<defs>
<filter id="filter0_b_4_253" x="-3.5" y="-4" width="32" height="32" filterUnits="userSpaceOnUse" color-interpolation-filters="sRGB">
<feFlood flood-opacity="0" result="BackgroundImageFix"/>
<feGaussianBlur in="BackgroundImage" stdDeviation="2"/>
<feComposite in2="SourceAlpha" operator="in" result="effect1_backgroundBlur_4_253"/>
<feBlend mode="normal" in="SourceGraphic" in2="effect1_backgroundBlur_4_253" result="shape"/>
</filter>
</defs>
</svg>
